<svg width="14" height="14" viewBox="0 0 14 14" fill="none" xmlns="http://www.w3.org/2000/svg">
<path d="M4.38691 13C4.48991 13.0005 4.59196 12.9804 4.68708 12.9409C4.78221 12.9014 4.86849 12.8433 4.94086 12.7701L10.1667 7.54416C10.3135 7.39718 10.396 7.19795 10.396 6.99022C10.396 6.78249 10.3135 6.58325 10.1667 6.43628L4.94086 1.21039C4.79226 1.07192 4.59572 0.996539 4.39264 1.00012C4.18956 1.00371 3.9958 1.08597 3.85218 1.22959C3.70856 1.37322 3.62629 1.56698 3.62271 1.77005C3.61912 1.97313 3.69451 2.16968 3.83297 2.31827L8.50491 6.99022L3.83297 11.6622C3.68617 11.8091 3.60372 12.0084 3.60372 12.2161C3.60372 12.4238 3.68617 12.6231 3.83297 12.7701C3.90534 12.8433 3.99162 12.9014 4.08675 12.9409C4.18187 12.9804 4.28392 13.0005 4.38691 13V13Z" fill="#F8F9FA"/>
</svg>
