<svg width="14" height="14" viewBox="0 0 14 14" fill="none" xmlns="http://www.w3.org/2000/svg">
<path d="M9.61309 13C9.51009 13.0005 9.40804 12.9804 9.31292 12.9409C9.21779 12.9014 9.13151 12.8433 9.05914 12.7701L3.83325 7.54416C3.68646 7.39718 3.604 7.19795 3.604 6.99022C3.604 6.78249 3.68646 6.58325 3.83325 6.43628L9.05914 1.21039C9.20774 1.07192 9.40428 0.996539 9.60736 1.00012C9.81044 1.00371 10.0042 1.08597 10.1478 1.22959C10.2914 1.37322 10.3737 1.56698 10.3773 1.77005C10.3809 1.97313 10.3055 2.16968 10.167 2.31827L5.49509 6.99022L10.167 11.6622C10.3138 11.8091 10.3963 12.0084 10.3963 12.2161C10.3963 12.4238 10.3138 12.6231 10.167 12.7701C10.0947 12.8433 10.0084 12.9014 9.91325 12.9409C9.81813 12.9804 9.71608 13.0005 9.61309 13V13Z" fill="#F8F9FA"/>
</svg>
