<svg width="24" height="24" viewBox="0 0 24 24" fill="none" xmlns="http://www.w3.org/2000/svg">
<path d="M10.5 3C5.92568 3 2 6.01048 2 10C2 11.3858 2.55696 12.639 3.375 13.7051L2.91602 18.8262L6.60156 16.1582C7.70603 16.6332 8.92309 16.945 10.2344 16.9844C10.9588 19.3049 13.3078 20.9609 16 20.9609C16.8527 20.9609 17.6025 20.689 18.3262 20.3965L22.0957 21.9473L21.3887 17.5859C21.7013 16.9355 22 16.2605 22 15.4805C22 13.4119 20.7529 11.651 18.9512 10.7168C18.9804 10.4806 19 10.242 19 10C19 6.01048 15.0743 3 10.5 3ZM10.5 5C14.2097 5 17 7.36152 17 10C17 10.0279 16.9928 10.0542 16.9922 10.082C16.6677 10.032 16.3376 10 16 10C12.9359 10 10.3111 12.1433 10.0273 14.9727C8.87154 14.9069 7.80113 14.6187 6.89844 14.1523L6.35156 13.8691L5.29883 14.6328L5.43164 13.1367L5.14453 12.8145C4.40584 11.9873 4 11.0316 4 10C4 7.36152 6.79032 5 10.5 5ZM7.82812 6.61523C7.18013 6.61523 6.65625 7.14392 6.65625 7.79492C6.65625 8.44692 7.18013 9 7.82812 9C8.47612 9 9 8.44592 9 7.79492C9 7.14392 8.47612 6.61523 7.82812 6.61523ZM13.1973 6.61523C12.5493 6.61523 12 7.14392 12 7.79492C12 8.44692 12.5483 9 13.1973 9C13.8453 9 14.3691 8.44692 14.3691 7.79492C14.3691 7.14392 13.8443 6.61523 13.1973 6.61523ZM16 12C18.2766 12 20 13.6098 20 15.4805C20 16.0457 19.8292 16.5759 19.5234 17.082L19.334 17.3965L19.3926 17.7598L19.5508 18.7363L18.4023 18.2637L17.9941 18.4727C17.3939 18.7777 16.7247 18.9609 16 18.9609C13.7234 18.9609 12 17.3511 12 15.4805C12 13.6098 13.7234 12 16 12ZM14.0215 14C13.4695 14 13 14.447 13 15C13 15.553 13.4725 16 14.0215 16C14.5705 16 15.0156 15.553 15.0156 15C15.0156 14.447 14.5715 14 14.0215 14ZM17.9922 14C17.729 14.0002 17.4766 14.1057 17.2906 14.2932C17.1045 14.4807 17 14.7349 17 15C17 15.2651 17.1045 15.5193 17.2906 15.7068C17.4766 15.8943 17.729 15.9998 17.9922 16C18.1227 16.0002 18.2519 15.9744 18.3725 15.9242C18.4932 15.874 18.6028 15.8004 18.6951 15.7075C18.7874 15.6146 18.8607 15.5043 18.9106 15.3829C18.9606 15.2615 18.9863 15.1314 18.9863 15C18.9863 14.8686 18.9606 14.7385 18.9106 14.6171C18.8607 14.4957 18.7874 14.3854 18.6951 14.2925C18.6028 14.1996 18.4932 14.126 18.3725 14.0758C18.2519 14.0256 18.1227 13.9998 17.9922 14Z" fill="white"/>
</svg>
